solid OpenSCAD_Model
  facet normal -0.939684 0.342044 0
    outer loop
      vertex 1.0667 11.7937 0
      vertex 0.802619 11.0682 1.3
      vertex 1.0667 11.7937 27
    endloop
  endfacet
  facet normal -0.939692 0.342023 -1.33132e-05
    outer loop
      vertex 0 8.86299 0
      vertex 0.802619 11.0682 1.3
      vertex 1.0667 11.7937 0
    endloop
  endfacet
  facet normal -0.939694 0.342016 0
    outer loop
      vertex 0.802619 11.0682 1.3
      vertex 0 8.86299 0
      vertex 0 8.86299 1.3
    endloop
  endfacet
  facet normal -0.939684 0.342044 0
    outer loop
      vertex 0.802619 11.0682 25.7
      vertex 1.0667 11.7937 27
      vertex 0.802619 11.0682 1.3
    endloop
  endfacet
  facet normal -0.939694 0.342016 0
    outer loop
      vertex 0 8.86299 27
      vertex 0.802619 11.0682 25.7
      vertex 0 8.86299 25.7
    endloop
  endfacet
  facet normal -0.939692 0.342023 1.33132e-05
    outer loop
      vertex 0.802619 11.0682 25.7
      vertex 0 8.86299 27
      vertex 1.0667 11.7937 27
    endloop
  endfacet
  facet normal -0.939686 0.342038 0
    outer loop
      vertex 19.2493 1.80009 1.3
      vertex 20.0702 4.05536 25.7
      vertex 20.0702 4.05536 1.3
    endloop
  endfacet
  facet normal -0.939686 0.342038 0
    outer loop
      vertex 20.0702 4.05536 25.7
      vertex 19.2493 1.80009 1.3
      vertex 19.2493 1.80009 25.7
    endloop
  endfacet
  facet normal 0.34202 0.939692 -0
    outer loop
      vertex 19.2493 1.80009 1.3
      vertex 0 8.80627 25.7
      vertex 19.2493 1.80009 25.7
    endloop
  endfacet
  facet normal 0.34202 0.939692 0
    outer loop
      vertex 0 8.80627 25.7
      vertex 19.2493 1.80009 1.3
      vertex 0 8.80627 1.3
    endloop
  endfacet
  facet normal 0 0 -1
    outer loop
      vertex 19.2493 1.80009 25.7
      vertex 0.802619 11.0682 25.7
      vertex 20.0702 4.05536 25.7
    endloop
  endfacet
  facet normal 0 0 -1
    outer loop
      vertex 0 8.80627 25.7
      vertex 0.802619 11.0682 25.7
      vertex 19.2493 1.80009 25.7
    endloop
  endfacet
  facet normal 0 0 -1
    outer loop
      vertex 0.802619 11.0682 25.7
      vertex 0 8.80627 25.7
      vertex 0 8.86299 25.7
    endloop
  endfacet
  facet normal -0.342021 -0.939692 0
    outer loop
      vertex 0.802619 11.0682 1.3
      vertex 20.0702 4.05536 25.7
      vertex 0.802619 11.0682 25.7
    endloop
  endfacet
  facet normal -0.342021 -0.939692 -0
    outer loop
      vertex 20.0702 4.05536 25.7
      vertex 0.802619 11.0682 1.3
      vertex 20.0702 4.05536 1.3
    endloop
  endfacet
  facet normal 0 0 1
    outer loop
      vertex 0.802619 11.0682 1.3
      vertex 19.2493 1.80009 1.3
      vertex 20.0702 4.05536 1.3
    endloop
  endfacet
  facet normal 0 0 1
    outer loop
      vertex 0 8.80627 1.3
      vertex 0.802619 11.0682 1.3
      vertex 0 8.86299 1.3
    endloop
  endfacet
  facet normal 0 0 1
    outer loop
      vertex 0.802619 11.0682 1.3
      vertex 0 8.80627 1.3
      vertex 19.2493 1.80009 1.3
    endloop
  endfacet
  facet normal -0.939676 0.342065 0
    outer loop
      vertex 11.0667 11.7937 0
      vertex 10.8026 11.0682 1.3
      vertex 11.0667 11.7937 27
    endloop
  endfacet
  facet normal -0.939692 0.342022 -2.76314e-05
    outer loop
      vertex 9.89693 8.5798 0
      vertex 10.8026 11.0682 1.3
      vertex 11.0667 11.7937 0
    endloop
  endfacet
  facet normal -0.939699 0.342002 0
    outer loop
      vertex 9.98177 8.81291 1.3
      vertex 9.89693 8.5798 0
      vertex 9.98177 8.81291 25.7
    endloop
  endfacet
  facet normal -0.939696 0.34201 -1.56335e-06
    outer loop
      vertex 10.8026 11.0682 1.3
      vertex 9.89693 8.5798 0
      vertex 9.98177 8.81291 1.3
    endloop
  endfacet
  facet normal -0.939676 0.342065 0
    outer loop
      vertex 10.8026 11.0682 25.7
      vertex 11.0667 11.7937 27
      vertex 10.8026 11.0682 1.3
    endloop
  endfacet
  facet normal -0.939696 0.34201 1.56335e-06
    outer loop
      vertex 9.89693 8.5798 27
      vertex 10.8026 11.0682 25.7
      vertex 9.98177 8.81291 25.7
    endloop
  endfacet
  facet normal -0.939692 0.342022 2.76314e-05
    outer loop
      vertex 10.8026 11.0682 25.7
      vertex 9.89693 8.5798 27
      vertex 11.0667 11.7937 27
    endloop
  endfacet
  facet normal -0.939699 0.342002 0
    outer loop
      vertex 9.89693 8.5798 27
      vertex 9.98177 8.81291 25.7
      vertex 9.89693 8.5798 0
    endloop
  endfacet
  facet normal 0.342016 0.939694 -0
    outer loop
      vertex 9.89693 8.5798 0
      vertex 1.0667 11.7937 27
      vertex 9.89693 8.5798 27
    endloop
  endfacet
  facet normal 0.342016 0.939694 0
    outer loop
      vertex 1.0667 11.7937 27
      vertex 9.89693 8.5798 0
      vertex 1.0667 11.7937 0
    endloop
  endfacet
  facet normal -0.939686 0.342038 0
    outer loop
      vertex 29.2493 1.80009 1.3
      vertex 30.0702 4.05536 25.7
      vertex 30.0702 4.05536 1.3
    endloop
  endfacet
  facet normal -0.939686 0.342038 0
    outer loop
      vertex 30.0702 4.05536 25.7
      vertex 29.2493 1.80009 1.3
      vertex 29.2493 1.80009 25.7
    endloop
  endfacet
  facet normal 0.342021 0.939692 -0
    outer loop
      vertex 29.2493 1.80009 1.3
      vertex 9.98177 8.81291 25.7
      vertex 29.2493 1.80009 25.7
    endloop
  endfacet
  facet normal 0.342021 0.939692 0
    outer loop
      vertex 9.98177 8.81291 25.7
      vertex 29.2493 1.80009 1.3
      vertex 9.98177 8.81291 1.3
    endloop
  endfacet
  facet normal 0 0 -1
    outer loop
      vertex 29.2493 1.80009 25.7
      vertex 10.8026 11.0682 25.7
      vertex 30.0702 4.05536 25.7
    endloop
  endfacet
  facet normal 0 -0 -1
    outer loop
      vertex 10.8026 11.0682 25.7
      vertex 29.2493 1.80009 25.7
      vertex 9.98177 8.81291 25.7
    endloop
  endfacet
  facet normal -0.34202 -0.939693 0
    outer loop
      vertex 10.8026 11.0682 1.3
      vertex 30.0702 4.05536 25.7
      vertex 10.8026 11.0682 25.7
    endloop
  endfacet
  facet normal -0.34202 -0.939693 -0
    outer loop
      vertex 30.0702 4.05536 25.7
      vertex 10.8026 11.0682 1.3
      vertex 30.0702 4.05536 1.3
    endloop
  endfacet
  facet normal 0 0 1
    outer loop
      vertex 10.8026 11.0682 1.3
      vertex 29.2493 1.80009 1.3
      vertex 30.0702 4.05536 1.3
    endloop
  endfacet
  facet normal 0 0 1
    outer loop
      vertex 29.2493 1.80009 1.3
      vertex 10.8026 11.0682 1.3
      vertex 9.98177 8.81291 1.3
    endloop
  endfacet
  facet normal -0.939676 0.342065 0
    outer loop
      vertex 21.0667 11.7937 0
      vertex 20.8026 11.0682 1.3
      vertex 21.0667 11.7937 27
    endloop
  endfacet
  facet normal -0.939689 0.342029 -2.27361e-05
    outer loop
      vertex 19.8969 8.5798 0
      vertex 20.8026 11.0682 1.3
      vertex 21.0667 11.7937 0
    endloop
  endfacet
  facet normal -0.939621 0.342216 0
    outer loop
      vertex 19.9818 8.81291 1.3
      vertex 19.8969 8.5798 0
      vertex 19.9818 8.81291 25.7
    endloop
  endfacet
  facet normal -0.9397 0.341999 4.40489e-05
    outer loop
      vertex 20.8026 11.0682 1.3
      vertex 19.8969 8.5798 0
      vertex 19.9818 8.81291 1.3
    endloop
  endfacet
  facet normal -0.939676 0.342065 0
    outer loop
      vertex 20.8026 11.0682 25.7
      vertex 21.0667 11.7937 27
      vertex 20.8026 11.0682 1.3
    endloop
  endfacet
  facet normal -0.9397 0.341999 -4.40489e-05
    outer loop
      vertex 19.8969 8.5798 27
      vertex 20.8026 11.0682 25.7
      vertex 19.9818 8.81291 25.7
    endloop
  endfacet
  facet normal -0.939689 0.342029 2.27361e-05
    outer loop
      vertex 20.8026 11.0682 25.7
      vertex 19.8969 8.5798 27
      vertex 21.0667 11.7937 27
    endloop
  endfacet
  facet normal -0.939621 0.342216 0
    outer loop
      vertex 19.8969 8.5798 27
      vertex 19.9818 8.81291 25.7
      vertex 19.8969 8.5798 0
    endloop
  endfacet
  facet normal 0.342017 0.939694 -0
    outer loop
      vertex 19.8969 8.5798 0
      vertex 11.0667 11.7937 27
      vertex 19.8969 8.5798 27
    endloop
  endfacet
  facet normal 0.342017 0.939694 0
    outer loop
      vertex 11.0667 11.7937 27
      vertex 19.8969 8.5798 0
      vertex 11.0667 11.7937 0
    endloop
  endfacet
  facet normal 0.342021 0.939692 -0
    outer loop
      vertex 39.2493 1.80009 1.3
      vertex 19.9818 8.81291 25.7
      vertex 39.2493 1.80009 25.7
    endloop
  endfacet
  facet normal 0.342021 0.939692 0
    outer loop
      vertex 19.9818 8.81291 25.7
      vertex 39.2493 1.80009 1.3
      vertex 19.9818 8.81291 1.3
    endloop
  endfacet
  facet normal -0.939686 0.342038 0
    outer loop
      vertex 39.2493 1.80009 1.3
      vertex 40.0702 4.05536 25.7
      vertex 40.0702 4.05536 1.3
    endloop
  endfacet
  facet normal -0.939686 0.342038 0
    outer loop
      vertex 40.0702 4.05536 25.7
      vertex 39.2493 1.80009 1.3
      vertex 39.2493 1.80009 25.7
    endloop
  endfacet
  facet normal 0 0 -1
    outer loop
      vertex 39.2493 1.80009 25.7
      vertex 20.8026 11.0682 25.7
      vertex 40.0702 4.05536 25.7
    endloop
  endfacet
  facet normal 0 -0 -1
    outer loop
      vertex 20.8026 11.0682 25.7
      vertex 39.2493 1.80009 25.7
      vertex 19.9818 8.81291 25.7
    endloop
  endfacet
  facet normal -0.34202 -0.939693 0
    outer loop
      vertex 20.8026 11.0682 1.3
      vertex 40.0702 4.05536 25.7
      vertex 20.8026 11.0682 25.7
    endloop
  endfacet
  facet normal -0.34202 -0.939693 -0
    outer loop
      vertex 40.0702 4.05536 25.7
      vertex 20.8026 11.0682 1.3
      vertex 40.0702 4.05536 1.3
    endloop
  endfacet
  facet normal 0 0 1
    outer loop
      vertex 20.8026 11.0682 1.3
      vertex 39.2493 1.80009 1.3
      vertex 40.0702 4.05536 1.3
    endloop
  endfacet
  facet normal 0 0 1
    outer loop
      vertex 39.2493 1.80009 1.3
      vertex 20.8026 11.0682 1.3
      vertex 19.9818 8.81291 1.3
    endloop
  endfacet
  facet normal -0.939676 0.342065 0
    outer loop
      vertex 31.0667 11.7937 0
      vertex 30.8026 11.0682 1.3
      vertex 31.0667 11.7937 27
    endloop
  endfacet
  facet normal -0.939689 0.342029 -2.27361e-05
    outer loop
      vertex 29.8969 8.5798 0
      vertex 30.8026 11.0682 1.3
      vertex 31.0667 11.7937 0
    endloop
  endfacet
  facet normal -0.939621 0.342216 0
    outer loop
      vertex 29.9818 8.81291 1.3
      vertex 29.8969 8.5798 0
      vertex 29.9818 8.81291 25.7
    endloop
  endfacet
  facet normal -0.9397 0.341999 4.40489e-05
    outer loop
      vertex 30.8026 11.0682 1.3
      vertex 29.8969 8.5798 0
      vertex 29.9818 8.81291 1.3
    endloop
  endfacet
  facet normal -0.939676 0.342065 0
    outer loop
      vertex 30.8026 11.0682 25.7
      vertex 31.0667 11.7937 27
      vertex 30.8026 11.0682 1.3
    endloop
  endfacet
  facet normal -0.9397 0.341999 -4.40489e-05
    outer loop
      vertex 29.8969 8.5798 27
      vertex 30.8026 11.0682 25.7
      vertex 29.9818 8.81291 25.7
    endloop
  endfacet
  facet normal -0.939689 0.342029 2.27361e-05
    outer loop
      vertex 30.8026 11.0682 25.7
      vertex 29.8969 8.5798 27
      vertex 31.0667 11.7937 27
    endloop
  endfacet
  facet normal -0.939621 0.342216 0
    outer loop
      vertex 29.8969 8.5798 27
      vertex 29.9818 8.81291 25.7
      vertex 29.8969 8.5798 0
    endloop
  endfacet
  facet normal 0.342017 0.939694 -0
    outer loop
      vertex 29.8969 8.5798 0
      vertex 21.0667 11.7937 27
      vertex 29.8969 8.5798 27
    endloop
  endfacet
  facet normal 0.342017 0.939694 0
    outer loop
      vertex 21.0667 11.7937 27
      vertex 29.8969 8.5798 0
      vertex 21.0667 11.7937 0
    endloop
  endfacet
  facet normal 0.342021 0.939692 -0
    outer loop
      vertex 49.2493 1.80009 1.3
      vertex 29.9818 8.81291 25.7
      vertex 49.2493 1.80009 25.7
    endloop
  endfacet
  facet normal 0.342021 0.939692 0
    outer loop
      vertex 29.9818 8.81291 25.7
      vertex 49.2493 1.80009 1.3
      vertex 29.9818 8.81291 1.3
    endloop
  endfacet
  facet normal -0.939686 0.342038 0
    outer loop
      vertex 49.2493 1.80009 1.3
      vertex 50.0702 4.05536 25.7
      vertex 50.0702 4.05536 1.3
    endloop
  endfacet
  facet normal -0.939686 0.342038 0
    outer loop
      vertex 50.0702 4.05536 25.7
      vertex 49.2493 1.80009 1.3
      vertex 49.2493 1.80009 25.7
    endloop
  endfacet
  facet normal 0 0 -1
    outer loop
      vertex 49.2493 1.80009 25.7
      vertex 30.8026 11.0682 25.7
      vertex 50.0702 4.05536 25.7
    endloop
  endfacet
  facet normal 0 -0 -1
    outer loop
      vertex 30.8026 11.0682 25.7
      vertex 49.2493 1.80009 25.7
      vertex 29.9818 8.81291 25.7
    endloop
  endfacet
  facet normal -0.34202 -0.939693 0
    outer loop
      vertex 30.8026 11.0682 1.3
      vertex 50.0702 4.05536 25.7
      vertex 30.8026 11.0682 25.7
    endloop
  endfacet
  facet normal -0.34202 -0.939693 -0
    outer loop
      vertex 50.0702 4.05536 25.7
      vertex 30.8026 11.0682 1.3
      vertex 50.0702 4.05536 1.3
    endloop
  endfacet
  facet normal 0 0 1
    outer loop
      vertex 30.8026 11.0682 1.3
      vertex 49.2493 1.80009 1.3
      vertex 50.0702 4.05536 1.3
    endloop
  endfacet
  facet normal 0 0 1
    outer loop
      vertex 49.2493 1.80009 1.3
      vertex 30.8026 11.0682 1.3
      vertex 29.9818 8.81291 1.3
    endloop
  endfacet
  facet normal 0.342019 0.939693 -0
    outer loop
      vertex 55 3.08273 0
      vertex 31.0667 11.7937 27
      vertex 55 3.08273 27
    endloop
  endfacet
  facet normal 0.342019 0.939693 0
    outer loop
      vertex 31.0667 11.7937 27
      vertex 55 3.08273 0
      vertex 31.0667 11.7937 0
    endloop
  endfacet
  facet normal -1 0 0
    outer loop
      vertex 0 8.86299 0
      vertex 0 8.80627 1.3
      vertex 0 8.86299 1.3
    endloop
  endfacet
  facet normal -1 -0 0
    outer loop
      vertex 0 8.80627 1.3
      vertex 0 0 0
      vertex 0 8.80627 25.7
    endloop
  endfacet
  facet normal -1 0 0
    outer loop
      vertex 0 0 0
      vertex 0 8.80627 1.3
      vertex 0 8.86299 0
    endloop
  endfacet
  facet normal -1 0 0
    outer loop
      vertex 0 8.80627 25.7
      vertex 0 8.86299 27
      vertex 0 8.86299 25.7
    endloop
  endfacet
  facet normal -1 0 0
    outer loop
      vertex 0 0 27
      vertex 0 8.80627 25.7
      vertex 0 0 0
    endloop
  endfacet
  facet normal -1 0 0
    outer loop
      vertex 0 8.80627 25.7
      vertex 0 0 27
      vertex 0 8.86299 27
    endloop
  endfacet
  facet normal -0 0 1
    outer loop
      vertex 29.8969 8.5798 27
      vertex 55 3.08273 27
      vertex 31.0667 11.7937 27
    endloop
  endfacet
  facet normal 0 0 1
    outer loop
      vertex 55 3.08273 27
      vertex 29.8969 8.5798 27
      vertex 55 0 27
    endloop
  endfacet
  facet normal 0 0 1
    outer loop
      vertex 19.8969 8.5798 27
      vertex 29.8969 8.5798 27
      vertex 21.0667 11.7937 27
    endloop
  endfacet
  facet normal 0 0 1
    outer loop
      vertex 0 0 27
      vertex 29.8969 8.5798 27
      vertex 19.8969 8.5798 27
    endloop
  endfacet
  facet normal 0 0 1
    outer loop
      vertex 9.89693 8.5798 27
      vertex 19.8969 8.5798 27
      vertex 11.0667 11.7937 27
    endloop
  endfacet
  facet normal 0 0 1
    outer loop
      vertex 0 0 27
      vertex 19.8969 8.5798 27
      vertex 9.89693 8.5798 27
    endloop
  endfacet
  facet normal -0 0 1
    outer loop
      vertex 0 8.86299 27
      vertex 9.89693 8.5798 27
      vertex 1.0667 11.7937 27
    endloop
  endfacet
  facet normal 0 0 1
    outer loop
      vertex 0 0 27
      vertex 9.89693 8.5798 27
      vertex 0 8.86299 27
    endloop
  endfacet
  facet normal 0 0 1
    outer loop
      vertex 29.8969 8.5798 27
      vertex 0 0 27
      vertex 55 0 27
    endloop
  endfacet
  facet normal 1 -0 0
    outer loop
      vertex 55 0 27
      vertex 55 3.08273 0
      vertex 55 3.08273 27
    endloop
  endfacet
  facet normal 1 0 0
    outer loop
      vertex 55 3.08273 0
      vertex 55 0 27
      vertex 55 0 0
    endloop
  endfacet
  facet normal 0 0 -1
    outer loop
      vertex 29.8969 8.5798 0
      vertex 55 3.08273 0
      vertex 55 0 0
    endloop
  endfacet
  facet normal 0 0 -1
    outer loop
      vertex 55 3.08273 0
      vertex 29.8969 8.5798 0
      vertex 31.0667 11.7937 0
    endloop
  endfacet
  facet normal 0 0 -1
    outer loop
      vertex 29.8969 8.5798 0
      vertex 19.8969 8.5798 0
      vertex 21.0667 11.7937 0
    endloop
  endfacet
  facet normal 0 0 -1
    outer loop
      vertex 0 0 0
      vertex 29.8969 8.5798 0
      vertex 55 0 0
    endloop
  endfacet
  facet normal 0 0 -1
    outer loop
      vertex 19.8969 8.5798 0
      vertex 9.89693 8.5798 0
      vertex 11.0667 11.7937 0
    endloop
  endfacet
  facet normal -0 0 -1
    outer loop
      vertex 29.8969 8.5798 0
      vertex 0 0 0
      vertex 19.8969 8.5798 0
    endloop
  endfacet
  facet normal -0 0 -1
    outer loop
      vertex 19.8969 8.5798 0
      vertex 0 0 0
      vertex 9.89693 8.5798 0
    endloop
  endfacet
  facet normal 0 0 -1
    outer loop
      vertex 0 8.86299 0
      vertex 9.89693 8.5798 0
      vertex 0 0 0
    endloop
  endfacet
  facet normal 0 0 -1
    outer loop
      vertex 9.89693 8.5798 0
      vertex 0 8.86299 0
      vertex 1.0667 11.7937 0
    endloop
  endfacet
  facet normal 0 -1 0
    outer loop
      vertex 0 0 0
      vertex 55 0 27
      vertex 0 0 27
    endloop
  endfacet
  facet normal 0 -1 -0
    outer loop
      vertex 55 0 27
      vertex 0 0 0
      vertex 55 0 0
    endloop
  endfacet
endsolid OpenSCAD_Model
